<svg xmlns="http://www.w3.org/2000/svg" viewBox="0 0 98.88 138.06"><defs><style>.cls-1{fill:#42120d;}.cls-2{fill:#fcde78;}.cls-3{fill:#f9fbfb;}.cls-4{fill:#b9b3b0;}.cls-5{fill:#988a7f;}.cls-6,.cls-7{fill:none;stroke-miterlimit:10;}.cls-6{stroke:#42120d;}.cls-7{stroke:#b9b3b0;}</style></defs><g id="Layer_2" data-name="Layer 2"><g id="Layer_1-2" data-name="Layer 1"><path class="cls-1" d="M97.34,18.93a.33.33,0,0,1,0-.19c0-.56.09-1.12.15-1.68.11-.92-.13-1.84-.08-2.77,0-.64,1-.64,1,0a8.54,8.54,0,0,0,0,1.34A5.93,5.93,0,0,1,98.54,17,16.07,16.07,0,0,0,98.36,19c0,.15,0,.31.07.47s0,0,0,.08a.8.8,0,0,1,0,.15,1.33,1.33,0,0,0,0,.19h0a.47.47,0,0,1,.12.31.59.59,0,0,1,0,.13.47.47,0,0,1-.23.37.51.51,0,0,1-.69-.18.49.49,0,0,1,0-.11h0a1,1,0,0,1-.09-.22.61.61,0,0,1-.09-.2,5,5,0,0,1-.1-.86Z"/><path class="cls-2" d="M29,117.61c-3.64-2-3.68-2-6,1.58-.78,1.19-2.79,2.6-2.25,3.45,1.72,2.73-.75,4.16-1.62,5.68s-3.06,2.47-4.85,3.27c-1.17.52-2-.6-2.33-1.73a5.88,5.88,0,0,1,.26-3.21c1.14-4.39,3-8.58,3.67-13.1.26-1.69-.06-2.75-1.83-3.59"/><path class="cls-1" d="M14,110c1.77.84,2.09,1.9,1.83,3.59-.7,4.52-2.53,8.71-3.67,13.1a5.88,5.88,0,0,0-.26,3.21c.34,1.13,1.16,2.25,2.33,1.73,1.79-.8,4-1.74,4.85-3.27s3.34-2.95,1.62-5.68c-.54-.85,1.47-2.26,2.25-3.45,2.36-3.57,2.42-3.58,6-1.58"/><path class="cls-1" d="M12.89,129.82a4.23,4.23,0,0,1,.23-2.64c1.44-5.05,3.64-9.89,4-15.47,2.08,1,3.87,1.85,5.71,2.61,1.32.55,1.28,1.23.52,2.24-1.08,1.46-2.08,3-3.13,4.46-.59.84-2.13,1.4-.29,2.71.88.62.2,2.18-.72,1.92-3-.83-2.49,1.7-3.32,3a16.72,16.72,0,0,1-1,1.61C14,131.31,13.29,130.91,12.89,129.82Z"/><path class="cls-3" d="M17.1,111.71c-.34,5.58-2.54,10.42-4,15.47a4.23,4.23,0,0,0-.23,2.64c.4,1.09,1.1,1.49,2,.41a16.72,16.72,0,0,0,1-1.61c.83-1.27.35-3.8,3.32-3,.92.26,1.6-1.3.72-1.92-1.84-1.31-.3-1.87.29-2.71,1.05-1.48,2.05-3,3.13-4.46.76-1,.8-1.69-.52-2.24C21,113.56,19.18,112.67,17.1,111.71Z"/><path class="cls-1" d="M.22,116a16,16,0,0,0,.21-4.58.47.47,0,0,0-.26-.4c0-.89,0-1.79.07-2.68.09-.66.17-1.33.24-2,.12-1.25.16-2.51.17-3.76a4.49,4.49,0,0,0,.16-1.18c.09-9.9.39-19.8.59-29.7.21-10.17.41-20.34.54-30.51a7.51,7.51,0,0,1,.23-1.84c0-.09.06-.18.09-.28a13.12,13.12,0,0,1,1.13.83h0l.1.08a.41.41,0,0,0,.33.07l.3.27a4.3,4.3,0,0,0,5.65,2.58c.47-.16,3.9,1.75,5.15,2,2.87.64,6.69-1.41,6.33-4.82-.09-.85-.19-1.69-.3-2.53a19.71,19.71,0,0,0,3.33,1.19c4.12,1,8.37.86,12.54,1.44,4.94.69,9,3.15,13,5.8,5.42,3.52,10.43-5.14,5.05-8.63C48.3,33.11,42.1,30.63,34.21,30c-7.73-.61-13.14-2.29-16.82-9.61-1.44-2.86-5.77-3.09-7.94-1.06a.5.5,0,0,0-.59.21c-.13.29-.25.57-.36.86a.55.55,0,0,0-.33.07.51.51,0,0,0-.6.19,7.4,7.4,0,0,0-.73,1.65,3.2,3.2,0,0,1-.49-2.09c.2-4.91.42-9.81.45-14.71,0-1.73.68-2.14,2.25-2.16C35,3,60.76.65,86.64,0a12.69,12.69,0,0,1,7.07,2c4,2.34,5.64,5.37,5.05,10-.35,2.69-.46,5.43-.58,8.32a.48.48,0,0,0,0,.35s0,.06,0,.09c0,1-.09,2.08-.16,3.17l-.12-.1a4.64,4.64,0,0,0-.69-3.15A22.93,22.93,0,0,0,86,11c-3.58-1.45-9.06-2.42-11.78,1.1-4.26,5.5,3.75,12.09,8.36,14.11a6,6,0,0,0,4.32.28,5.23,5.23,0,0,0,.53,2.4c1.37,2.86,1.45,6.84,1.84,10l.09.73a5,5,0,0,0-4.19,3.18A131.93,131.93,0,0,0,64.31,47c-5,1.42-9.41,3.94-8.92,9.92.46,5.75,5.82,5.8,10.25,6.17,7,.57,14.29,1.28,20.67,4.38a5.05,5.05,0,0,0,6.12-1.22,6.88,6.88,0,0,1,.63,2.7c.7,10.9,0,21.8.4,32.69.18,4.5-.49,8.42-4,11.52-.66.58-1.86,1.37-1.14,2.48.81,1.26,1.91.14,2.88-.06s2.34-1.11,2.29.92a81.11,81.11,0,0,1-.59,9.23c-.29,2-2.38.65-3.39,1.28s.11,3.22-1.93,3.26c-1.12,0-2.1.58-2.87.6-1.73,0-3.51-.29-5.31-.26-.53,0-.7-.76-.79-1.31-.11-.71,0-1.43-1.22-1.09s-1.75-.46-1.83-1.49c0-.82-.48-.74-1-.81-5.52-.72-6.06-.31-6.64,5.17,0,.18,0,.36,0,.54-.55,4.27-.55,4.26,3.42,5.27.09,0,.13.25.42.9-6.43,0-12.63.9-19.49-.36,4.82-2.08,4.82-2.08,3.66-6.75-1.21-4.86-1.21-4.86-6.21-4.85s-5.08,0-5.69,5.08c-.26,2.14-2,4.66,1.9,6.14-5.59,1-10.52.6-15.46.29-.38,0-.74-.08-.81-.53a.69.69,0,0,1,.55-.81c2.38-.54,1.9-2.27,1.61-3.88-.21-1.15-.63-2.28-.8-3.44-.26-1.83-1.15-2.52-3.06-2.6-7.26-.31-14.51-.78-21.76-1.26-6.31-.42-6.3-.47-5.92-6.54C.19,117.31.24,116.59.22,116Z"/><path class="cls-1" d="M.14,118.24c-.38,6.07-.39,6.12,5.92,6.54,7.25.48,14.5,1,21.76,1.26,1.91.08,2.8.77,3.06,2.6.17,1.16.59,2.29.8,3.44.29,1.61.77,3.34-1.61,3.88a.69.69,0,0,0-.55.81c.07.45.43.51.81.53,4.94.31,9.87.73,15.46-.29-3.86-1.48-2.16-4-1.9-6.14.61-5.07.66-5.06,5.69-5.08s5,0,6.21,4.85c1.16,4.67,1.16,4.67-3.66,6.75,6.86,1.26,13.06.36,19.49.36-.29-.65-.33-.88-.42-.9-4-1-4-1-3.42-5.27,0-.18,0-.36,0-.54.58-5.48,1.12-5.89,6.64-5.17.57.07,1,0,1,.81.08,1,.76,1.79,1.83,1.49s1.11.38,1.22,1.09c.09.55.26,1.32.79,1.31,1.8,0,3.58.28,5.31.26.77,0,1.75-.58,2.87-.6,2,0,.81-2.55,1.93-3.26s3.1.71,3.39-1.28a81.11,81.11,0,0,0,.59-9.23c0-2-1.32-1.12-2.29-.92-.75.16-1.57.84-2.28.59a1.15,1.15,0,0,1-.55.33c-.56.37-1.26,1.18-1.75.72s.34-.91.75-1.27c.17-.41.38-.87.74-.94,0-.78.82-1.39,1.35-1.85,3.55-3.1,4.22-7,4-11.52-.45-10.89.3-21.79-.4-32.69a6.88,6.88,0,0,0-.63-2.7,6.09,6.09,0,0,1-1,.85,7,7,0,0,1,.47,2.24c.74,11.24-.47,22.51.32,33.71.4,5.64-3.5,8.4-6,12.2-.12.19-.57.41-.64.35-2-1.7-.39.64-.8.69,1,3.39,2,6.77,2.89,10.18.25.94.75,2-.27,2.86-1.12-.45-.6-2.27-1.89-2.18-1.71.13,0,1.67-.75,2.35-.23.21-.21.76-.67.67a1.45,1.45,0,0,1-.84-.55c-.55-.79.43-2.59-1.22-2.52-1.18.06-.27,1.83-1.07,2.5a5.92,5.92,0,0,1-.68.42c-1.12-.06-1.15-.83-1-1.65.16-1.29-.53-1.51-1.58-1.31-.45.51-1,.63-1.15-.13s.11-1.24,1-1.13l-.09-.09c.83-2.2-.55-6.49-3-8.69.43,1.11.73,1.94,1.07,2.75,2,4.92,2,4.91-3.1,5.09s-5,.17-5.62,5.23c-.78,6.89-.83,6.93-7.66,6.32-.27,0-.54-.06-.81-.07-.53,0-.81-.2-.76-.81.26-3.26-1.45-6.16-1.72-9.3-.12-1.27-.61-1.53-1.65-1.53-3.09,0-6.18,0-9.26,0-1.11,0-1.67.33-1.67,1.54a17.85,17.85,0,0,1-.36,2.7c-1.29,8.57-1.31,8.58-10.25,7.2,1-3.24-.51-6.17-1.14-9.22-.33-1.58-1.24-2-2.69-2-7.34-.33-14.69-.72-22-1.12-5.79-.31-5.7-.33-5.51-6,.46-13.25.83-26.5,1.24-39.75,0-.57,0-1.14,0-1.71,0-1.59.07-3.19.11-4.78a1.09,1.09,0,0,1,0-1.2C2.83,60.42,3,50.61,3,40.79a4.19,4.19,0,0,1,.12-1c-.28-.23-.58-.45-.89-.66,0,.1-.07.19-.09.28a7.51,7.51,0,0,0-.23,1.84c-.13,10.17-.33,20.34-.54,30.51-.2,9.9-.5,19.8-.59,29.7a4.49,4.49,0,0,1-.16,1.18c0,1.14-.05,2.29-.15,3.44,0,1.84,0,3.53,0,5.19a2.88,2.88,0,0,1-.07.77,14.64,14.64,0,0,1-.24,4C.24,116.59.19,117.31.14,118.24Zm92.29-1.68c-.17,2.72-.33,5.23-.48,7.75,0,.75-.06,1.53-1.14,1.41-.83-.1-1.78.35-2.43-.68C85.51,120.46,86.57,118,92.43,116.56Z"/><path class="cls-1" d="M6.8,5.52c0-1.73.68-2.14,2.25-2.16C35,3,60.76.65,86.64,0a12.69,12.69,0,0,1,7.07,2c4,2.34,5.64,5.37,5.05,10-.33,2.52-.44,5.08-.56,7.77a.5.5,0,0,1,0,1v0c0,1-.09,2.08-.16,3.17l-.12-.1a4.54,4.54,0,0,0-.37-2.54c0-4.91,0-9.29,0-13.67a2.37,2.37,0,0,0-1.21-2C94.5,4.3,92.72,2.92,90.93,1.54c-1.25-1-2.59-.28-3.9-.27a5.11,5.11,0,0,0-2.92.18c-17.53.4-35,1.51-52.55,2.46q-10.6.57-21.24.72c-1.9,0-2.42.52-2.38,2.43.08,4.08,0,8.18-.27,12.26a4.53,4.53,0,0,0,.07,1.2.47.47,0,0,0-.17.15,7.4,7.4,0,0,0-.73,1.65,3.2,3.2,0,0,1-.49-2.09C6.55,15.32,6.77,10.42,6.8,5.52Z"/><path class="cls-3" d="M6.81,123.71c7.34.4,14.69.79,22,1.12,1.45.06,2.36.43,2.69,2,.63,3,2.12,6,1.14,9.22,8.94,1.38,9,1.37,10.25-7.2a17.85,17.85,0,0,0,.36-2.7c0-1.21.56-1.56,1.67-1.54,3.08,0,6.17,0,9.26,0,1,0,1.53.26,1.65,1.53.27,3.14,2,6,1.72,9.3,0,.61.23.78.76.81.27,0,.54,0,.81.07,6.83.61,6.88.57,7.66-6.32.58-5.06.58-5.06,5.62-5.23s5.09-.17,3.1-5.09c-.34-.81-.64-1.64-1.07-2.75,2.44,2.2,3.82,6.49,3,8.69.88.71,1.52,1.17,1.49-.62,0-2.79.08-5.58.18-8.37.19-5.28.66-10.59-.29-15.85-1.18,3.29-1.18,3.29-3,5,2.83-5.22,3.53-10.3,1.88-15.56s-6.47-8.56-11.22-7.64c5.94,3,8.4,8.1,7.5,15.63-1,8-4.73,11.23-12.66,10.77a1.89,1.89,0,0,0,1.77,1,15.15,15.15,0,0,0,11-2.94c.51-.39.89-1.24,1.86-.54a18.12,18.12,0,0,1-2.6,4.08c0,1.55-.59,2.73-2.38,2.22s-1.45.67-1.55,1.58c-.15,1.32.61,2.87-1,3.82a.43.43,0,0,1,0,.4c.1.13.32.29.3.39a1.92,1.92,0,0,1-2.27,1.75c-1.13-.18-1.28-1.26-1.43-2.3-.28-1.9,1.3-3.78.06-5.66-.83.12-.85,1-1.41,1.42-.86.6-2.06.57-2.1-.45-.06-1.66-1.57-1.31-2.17-2.1-.71-1.82-2.64-2.9-3-4.93a9.13,9.13,0,0,1-2.5-5.89c-.65-5.67-.67-11.2,3-16.15,3.32-4.52,12.37-7.13,17.74-2C77,85,78,87.67,79.11,90.46c.09-2.34.16-4.68.27-7q.42-9.12.85-18.22A74.61,74.61,0,0,0,67,63.16c.43-.31.85-.64,1.27-1A15.57,15.57,0,0,0,73.1,53c.36-2.21.05-5.48,1-7.44a8.85,8.85,0,0,0,.43-1.07c2.56-.5,5.13-1,7.72-1.31,0-.91.11-1.81.19-2.71.41-4.62.88-9.24,1.35-13.85l-.53-.14a7.11,7.11,0,0,0,.85-1.59c1.4-3.68.64-7.7.25-11.5a6.81,6.81,0,0,0-1.17-3.26c.56.13,1.11.29,1.64.46.17-2.48.33-5,.6-7.44.13-1.18-.33-1.57-1.33-1.71-17.53.4-35,1.51-52.55,2.46q-10.6.57-21.24.72C8.8,4.66,8.16,5,8,6.1A2.33,2.33,0,0,0,7.5,7.38v0a2.75,2.75,0,0,0-.28,1.09.42.42,0,0,0,0,.16,8.27,8.27,0,0,0-.84,4.59A7.49,7.49,0,0,0,5.85,18c.3,1.58-.44,3.16-.77,4.73-.38,1.82-.33,3.7-.67,5.51-.76,4-1.44,7.33-1.13,11.43a.27.27,0,0,0-.07.08l-.06,0s0,.08,0,.11,0,0,0,0L3.07,40a.34.34,0,0,0,0,.2h0a5.09,5.09,0,0,0,0,.58c0,9.82-.2,19.63-.33,29.44,1.25.06,2.5.14,3.74.18,4.53.11,9.05-.74,13.57,0,.83-1.22,3.15-1.27,2.72-3.5a.49.49,0,0,1,.72-.5,1.48,1.48,0,0,1,.7.74,2.51,2.51,0,0,1-.55,2.73c-1,1-2.11,1.7-3.56.79a16.2,16.2,0,0,1-5,.5c-4.11.14-8.23-.32-12.32.31,0,1.59-.07,3.19-.11,4.78a1.23,1.23,0,0,1,0,1.71c-.41,13.25-.78,26.5-1.24,39.75C1.11,123.38,1,123.4,6.81,123.71ZM73.38,13.49c.19,1.72.55,3.61.58,5.38A6,6,0,0,1,73.38,13.49ZM68.66,69c.81-.57,1.08.29,1.31.8.37.87.79,1.63,1.85,1.7.53,0,1.18,0,1.12.75s-.8.83-1.61.88a3.7,3.7,0,0,1-3.08-2.42A1.42,1.42,0,0,1,68.66,69ZM41.75,102.54a3.07,3.07,0,0,1,3.56-2.9,4,4,0,0,1,2.61.58c1.35,1,2.55,2.39,1.87,4.09s-2.39,1.19-3.79.77a3.08,3.08,0,0,0-2.09-.25C41.46,105.73,41.53,104.06,41.75,102.54Zm-24.63,1.57c1.08.08.93.81.83,1.57A1.63,1.63,0,0,1,17.12,104.11ZM16,87.24c1.94-5.62,7.15-9,12.44-8.39A10.53,10.53,0,0,1,37.6,86a21.94,21.94,0,0,1-2.67,19.51c-.16,2.31-2.06,3.74-2.91,5.71a4.65,4.65,0,0,0-.69,1.42c-.09,1.06-.25,2.18-1.46,2.23s-1.33-1-1.32-2a.76.76,0,0,0-.87-.8.93.93,0,0,0-.77,1c0,1,.06,2,0,3s-.39,2.1-1.62,2.1-1.65-1-1.68-2.05,0-2.14,0-3.26c-.82.24-1.24,1.53-2.3.94-1.31-.73-.7-2.09-.94-3.18l0,0-.1-.1,0,.1c-.58-1.46-1.91-2.58-2.15-4.58,3.13,1.65,5.93,3.63,9.43,2.25-5.79-1.87-8.62-5.33-8.93-11.89-.38-8.11,2.65-14,11.61-15.34-2.47-.35-4.78-.94-7.06.29-6.28,3.38-8.09,8.75-7.36,15.52.27,2.44,1.45,4.68,1.23,7.17A21.8,21.8,0,0,1,16,87.24Z"/><path class="cls-3" d="M86.31,67.43a4.93,4.93,0,0,0,5.15-.37,7,7,0,0,1,.47,2.24c.74,11.24-.47,22.51.32,33.71.4,5.64-3.5,8.4-6,12.2-.12.19-.57.41-.64.35-2-1.7-.39.64-.8.69,1,3.39,2,6.77,2.89,10.18.25.94.75,2-.27,2.86-1.12-.45-.6-2.27-1.89-2.18-1.71.13,0,1.67-.75,2.35-.23.21-.21.76-.67.67a1.45,1.45,0,0,1-.84-.55c-.55-.79.43-2.59-1.22-2.52-1.18.06-.27,1.83-1.07,2.5a5.92,5.92,0,0,1-.68.42c0-10,.11-20.1,0-30.15C80.14,88.38,81,77,81.41,65.53A34,34,0,0,1,86.31,67.43Z"/><path class="cls-3" d="M85.14,42.82l-1.62.2c.39-5.42.81-10.83,1.38-16.22a5.07,5.07,0,0,0,2-.3,5.28,5.28,0,0,0,.52,2.41c1.37,2.86,1.45,6.84,1.84,10l.09.73A5,5,0,0,0,85.14,42.82Z"/><path class="cls-3" d="M97.51,21.3a4.47,4.47,0,0,0-.32-.61,22.9,22.9,0,0,0-10.94-9.54,21.94,21.94,0,0,0,0-3.14A31.08,31.08,0,0,1,87,1.27c1.31,0,2.65-.7,3.9.27,1.79,1.38,3.57,2.76,5.38,4.11a2.37,2.37,0,0,1,1.21,2C97.5,12,97.51,16.39,97.51,21.3Z"/><path class="cls-3" d="M.46,112l0-.56a.47.47,0,0,0-.26-.4c0-.89,0-1.79.07-2.68.09-.66.17-1.33.24-2,0-.1,0-.21,0-.32,0,1.84,0,3.53,0,5.19A2.88,2.88,0,0,1,.46,112Z"/><path class="cls-4" d="M78.94,125.05c0-2.79.08-5.58.18-8.37.19-5.28.66-10.59-.29-15.85a27.62,27.62,0,0,0,.28-10.37c.09-2.34.16-4.68.27-7q.42-9.12.85-18.22l1.18.31C81,77,80.14,88.38,80.3,99.83c.14,10,0,20.1,0,30.15-1.12-.06-1.15-.83-1-1.65.16-1.29-.53-1.51-1.58-1.31,0-.42-.1-.84-.16-1.26l-.09-.09C78.33,126.38,79,126.84,78.94,125.05Z"/><path class="cls-4" d="M82.26,43.19c0-.91.11-1.81.19-2.71.41-4.62.88-9.24,1.35-13.85a6.8,6.8,0,0,0,1.1.17c-.57,5.39-1,10.8-1.38,16.22Z"/><path class="cls-3" d="M92.43,116.56c-5.86,1.39-6.92,3.9-4.05,8.48.65,1,1.6.58,2.43.68,1.08.12,1.09-.66,1.14-1.41C92.1,121.79,92.26,119.28,92.43,116.56Z"/><path class="cls-4" d="M20,70.36c-4.52-.69-9,.16-13.57,0-1.24,0-2.49-.12-3.74-.18a1.09,1.09,0,0,0,0,1.2c4.09-.63,8.21-.17,12.32-.31a16.2,16.2,0,0,0,5-.5l.07-.14Z"/><path class="cls-4" d="M86.25,11.15,86,11c-.36-.15-.74-.28-1.13-.42.17-2.48.33-5,.6-7.44.13-1.18-.33-1.57-1.33-1.71A5.11,5.11,0,0,1,87,1.27,31.08,31.08,0,0,0,86.28,8,21.94,21.94,0,0,1,86.25,11.15Z"/><path class="cls-3" d="M77.7,127c0-.42-.1-.84-.16-1.26-.88-.11-1.17.44-1,1.13S77.25,127.53,77.7,127Z"/><path class="cls-2" d="M87.33,115.91c-.41.36-1.31.76-.75,1.27s1.19-.35,1.75-.72Z"/><path class="cls-4" d="M2.54,77.92a1.23,1.23,0,0,0,0-1.71C2.55,76.78,2.54,77.35,2.54,77.92Z"/><path class="cls-1" d="M78.83,100.83a27.62,27.62,0,0,0,.28-10.37C78,87.67,77,85,74.62,82.76c-5.37-5.14-14.42-2.53-17.74,2-3.64,5-3.62,10.48-3,16.15a9.13,9.13,0,0,0,2.5,5.89L61.34,109c7.93.46,11.71-2.77,12.66-10.77.9-7.53-1.56-12.65-7.5-15.63,4.75-.92,9.54,2.3,11.22,7.64s1,10.34-1.88,15.56C77.65,104.12,77.65,104.12,78.83,100.83Z"/><path class="cls-1" d="M34.93,105.5A21.94,21.94,0,0,0,37.6,86a10.53,10.53,0,0,0-9.15-7.14C23.16,78.24,18,81.62,16,87.24a21.77,21.77,0,0,0,1.11,16.82l0,0c.26-2.53-1-4.8-1.23-7.27-.73-6.77,1.08-12.14,7.36-15.52,2.28-1.23,4.59-.64,7.06-.29-9,1.38-12,7.23-11.61,15.34.31,6.56,3.14,10,8.93,11.89C30.56,108.69,32.81,107.27,34.93,105.5Z"/><path class="cls-4" d="M61.34,109l-4.93-2.22c.36,2,2.29,3.11,3,4.93.78.19,1.9-.45,2.27.79.28.92.4,1.9,1.7,1,1.1-.78,1.1-.78,1.73-.65l-.06,0c2.18,1.16.81,2.9.71,4.43-.06.89-.33,1.91.55,2.49,1.12.73,1.44-.61,2.12-1a.43.43,0,0,0,0-.4c0-1.51,0-3,0-4.54s.56-2.37,2-2.08c1.28.26,1.9-.78,2.89-1a18.12,18.12,0,0,0,2.6-4.08c-1-.7-1.35.15-1.86.54a15.15,15.15,0,0,1-11,2.94A1.89,1.89,0,0,1,61.34,109Z"/><path class="cls-4" d="M34.93,105.5c-2.12,1.77-4.37,3.19-7.33,2.75-3.5,1.38-6.3-.6-9.43-2.25.24,2,1.57,3.12,2.15,4.58h.08l0,0c.92.38,0,4.39,2.76,1.32.71-.79,1.32.2,1.39.92a14.38,14.38,0,0,1-.29,2.12c0,.87-.33,2.14.85,2.24s1.09-1.14,1-2c-.11-1.46-.35-3.14,1.32-3.73,2.14-.75,1.09,2.08,2.34,2.5,1.31-.49.08-3,2.25-2.74C32.87,109.24,34.77,107.81,34.93,105.5Z"/><path class="cls-1" d="M45.31,99.63a3.08,3.08,0,0,0-3.56,2.91c-.22,1.52-.29,3.19,2.16,2.29a3.08,3.08,0,0,1,2.09.25c1.4.42,3.11.93,3.79-.77s-.52-3.07-1.87-4.09A4.07,4.07,0,0,0,45.31,99.63Z"/><path class="cls-1" d="M32,111.21c-2.17-.27-.94,2.25-2.25,2.74-1.25-.42-.2-3.25-2.34-2.5-1.67.59-1.43,2.27-1.32,3.73.07.88.23,2.13-1,2s-.89-1.37-.85-2.24a14.38,14.38,0,0,0,.29-2.12c-.07-.72-.68-1.71-1.39-.92-2.72,3.07-1.84-.94-2.76-1.32.24,1.09-.37,2.45.94,3.18,1.06.59,1.48-.7,2.3-.94,0,1.12,0,2.19,0,3.26s.49,2.05,1.68,2.05,1.58-1,1.62-2.1,0-2,0-3a.93.93,0,0,1,.77-1,.76.76,0,0,1,.87.8c0,1,.2,2,1.32,2s1.37-1.17,1.46-2.23A4.65,4.65,0,0,1,32,111.21Z"/><path class="cls-5" d="M73.35,110.65c-1,.22-1.61,1.26-2.89,1-1.46-.29-2,.66-2,2.08s0,3,0,4.54c1.6-1,.84-2.5,1-3.82.1-.91-.18-2.07,1.55-1.58S73.3,112.2,73.35,110.65Z"/><path class="cls-1" d="M71.33,73.13c.81,0,1.54,0,1.61-.88s-.59-.71-1.12-.75c-1.06-.07-1.48-.83-1.85-1.7-.23-.51-.5-1.37-1.31-.8a1.42,1.42,0,0,0-.41,1.71A3.7,3.7,0,0,0,71.33,73.13Z"/><path class="cls-1" d="M20,70.36l.1.12-.07.14c1.45.91,2.56.2,3.56-.79a2.51,2.51,0,0,0,.55-2.73,1.48,1.48,0,0,0-.7-.74.49.49,0,0,0-.72.5C23.16,69.09,20.84,69.14,20,70.36Z"/><path class="cls-1" d="M68.43,118.67c-.68.43-1,1.77-2.12,1-.88-.58-.61-1.6-.55-2.49.1-1.53,1.47-3.27-.71-4.43,1.32,1.9-.3,3.8,0,5.72.15,1,.3,2.12,1.43,2.3a1.92,1.92,0,0,0,2.27-1.75C68.75,119,68.53,118.8,68.43,118.67Z"/><path class="cls-1" d="M65.11,112.84c-.63-.13-.63-.13-1.73.65-1.3.92-1.42-.06-1.7-1-.37-1.24-1.49-.6-2.27-.79.6.79,2.11.44,2.17,2.1,0,1,1.24,1.05,2.11.45C64.24,113.89,64.26,113,65.11,112.84Z"/><path class="cls-1" d="M17.12,104.06a1.64,1.64,0,0,0,.83,1.62c.1-.76.25-1.51-.86-1.58Z"/><path class="cls-4" d="M7.84,105.68l.78-.5-.27-.28-.5.8Z"/><path class="cls-4" d="M7.85,105.7l-.41.89.21.1c.06-.34.13-.67.19-1Z"/><polygon class="cls-1" points="20.4 110.58 20.32 110.58 20.3 110.48 20.4 110.58"/><path class="cls-3" d="M67.65,52.9c-1.54-2.8-.92-7,3-8.29,4.14-1.35,8.51-1.16,12.71-2.1a5,5,0,0,1,.67-2.68l.15-1c0-.23,0-.46.06-.69.08-1,.15-1.91.2-2.87.11-1.91.16-3.83.18-5.74a5.65,5.65,0,0,1,.42-2.13,5.46,5.46,0,0,1-5.17-4,6.09,6.09,0,0,1,.15-3.23,6.69,6.69,0,0,1-2-.94c-2.41-1.73-3.57-4.8-2-7.53,1.39-2.38,5.09-3.71,7.52-2-.49-.09-.53-.1-.14,0a8.28,8.28,0,0,0,.84.16l1.12.13a6.28,6.28,0,0,1,1.08.24,5.6,5.6,0,0,1,7.18,2.12,19.69,19.69,0,0,1,2.93,6.48,5.56,5.56,0,0,1,.74,2.65,29.35,29.35,0,0,1-.38,5A21,21,0,0,1,97,29.05a5.89,5.89,0,0,1-.59,2.4v.27a5.29,5.29,0,0,1-.36,1.9c0,.12,0,.25,0,.37,0,.6-.13,1.19-.2,1.78a10.77,10.77,0,0,1-.3,1.56,62.56,62.56,0,0,1-.73,8.73A4.35,4.35,0,0,1,95,47.29a6.62,6.62,0,0,1-.38,2c0,.06,0,.12,0,.18a5.37,5.37,0,0,1-.83,2.84,6.32,6.32,0,0,1-.06.75c-.33,2.07-.65,4.09-.9,6.17a26.11,26.11,0,0,0-.26,5.16c.1,5.64-6.84,6.78-9.74,3.45-.31-.22-.65-.47-1-.75h-.6a18.14,18.14,0,0,1-6.22-.8,6.81,6.81,0,0,1-1.56-.82c-.63.31-1.27.62-1.92.88-3.51,1.44-6.81-2.12-7-5.3C64.44,58.47,65.85,55.46,67.65,52.9Z"/><path class="cls-3" d="M85.42,10h0C85.55,10,85.53,10,85.42,10Z"/><line class="cls-6" x1="98.12" y1="20.19" x2="92.61" y2="68.65"/><path class="cls-3" d="M68.28,59.94a54.92,54.92,0,0,1,11,3.18c1.71.7,3.4,1.49,5,2.35a14.17,14.17,0,0,1,3.34,2.19l.33-.06.4-.06a.5.5,0,0,1,1-.25l0,0a.67.67,0,0,0,.12-.06,3.28,3.28,0,0,0,.31-.2l0,0v-.13a.54.54,0,0,1,.06-.25.57.57,0,0,1,.3-.23,3.33,3.33,0,0,1,.69-.12.31.31,0,0,1,.19,0,.34.34,0,0,1,.16.1,0,0,0,0,1,0,0h0a.59.59,0,0,0,0-.13.48.48,0,0,1,0-.39.27.27,0,0,1,.1-.11l0-.13,0,0h0a.5.5,0,0,1,1,0,8.91,8.91,0,0,1-.07,2.19,4.86,4.86,0,0,1-.41,1.1c0,.19,0,.39,0,.58a.51.51,0,0,1-.5.5A.48.48,0,0,1,91,69.9a.47.47,0,0,1-.28-.05.52.52,0,0,1-.18-.69,3.86,3.86,0,0,0,.31-.51A7,7,0,0,1,91,67.53c0-.12.06-.24.09-.35l-.09.07a.46.46,0,0,1-.23.06,2.38,2.38,0,0,1-1.43,1.11.52.52,0,0,1-.33.12c-.2.06-.41.1-.62.15a.51.51,0,0,1-.93.36l-.13-.17a.7.7,0,0,1-.65-.14.47.47,0,0,1,0-.63,16.29,16.29,0,0,0-3.39-2,52.06,52.06,0,0,0-4.93-2.24A54.29,54.29,0,0,0,68,60.9C67.38,60.79,67.65,59.82,68.28,59.94Z"/><line class="cls-6" x1="7.36" y1="4.77" x2="2.62" y2="40.14"/><line class="cls-7" x1="86.25" y1="2.27" x2="80.28" y2="73.13"/><path class="cls-3" d="M56.63,109.64A16.28,16.28,0,0,0,66,111.32a32.37,32.37,0,0,0,4.87-1.13c1-.51,1.88-1.07,2.86-1.48a.42.42,0,0,1,.17-.18,4.4,4.4,0,0,0,.56-.31.83.83,0,0,0,.12-.08s0,0,0,0l.06,0a2.5,2.5,0,0,0,.22-.24,1.63,1.63,0,0,1,.58-.42l.13-.07,0,0a.54.54,0,0,1,.14-.34.53.53,0,0,1,.36-.15.52.52,0,0,1,.5.5.94.94,0,0,1-.49.85h0a1.66,1.66,0,0,1,.33,0c1.33.13,2.15,2,.69,2.73l-.47.22a1.43,1.43,0,0,1-.26.3v0a2,2,0,0,1-.05.24,1,1,0,0,1,.11.6,3.53,3.53,0,0,1-.71,2.44,2.85,2.85,0,0,1-1.54.67,4.68,4.68,0,0,1-.73.4A27,27,0,0,1,69,117.34a1.36,1.36,0,0,1,.74.91,2.09,2.09,0,0,1-.63,2,2.25,2.25,0,0,1-.89.47,1.25,1.25,0,0,1-.7.16h-.17L67,121a7.24,7.24,0,0,1-3.74-.51c-1.18-.53-.81-2.37.26-2.74a2.34,2.34,0,0,1-.33-.84,1.77,1.77,0,0,1,.21-1.17c-.28.06-.57.13-.86.18a1.55,1.55,0,0,1-1.7-.76,10.29,10.29,0,0,1-5.22-2,1.2,1.2,0,0,1-.42-.85l-.08,0C53.37,111.4,54.89,108.81,56.63,109.64Z"/><path class="cls-3" d="M12.37,106.37c.67.15,1.33.33,2,.52a1.18,1.18,0,0,1,.05-.42,1.52,1.52,0,0,1,1.84-1,2.3,2.3,0,0,1,1.26,1,4.11,4.11,0,0,1,.25.57v0l0,0a1.32,1.32,0,0,1,.77.41l.37.38.3.21c.34.23.67.48,1,.73a21.59,21.59,0,0,0,4.44.9,19,19,0,0,0,11.53-2.85c1.65-1,3.15,1.57,1.52,2.59a22.36,22.36,0,0,1-4.09,2l.79,0a1.64,1.64,0,0,1,1.32.8c1.76-.23,3.51-.53,5.23-.88,1.89-.38,2.69,2.51.8,2.89s-3.77.7-5.67.95a1.48,1.48,0,0,1-1.4,1.91q-1.14,0-2.28,0a1.56,1.56,0,0,1-.67.22,27.32,27.32,0,0,1-3.73,0,39.06,39.06,0,0,0,7.51,1.28c1.92.1,1.93,3.1,0,3a57.4,57.4,0,0,1-12.36-2.48,49.81,49.81,0,0,1-11.37-4.28,1.5,1.5,0,0,1,1.51-2.59l.18.09h.14l.77.13-.7-.34a1.43,1.43,0,0,1-.15-2.42c-.66-.18-1.32-.36-2-.51C9.68,108.85,10.48,106,12.37,106.37Z"/></g></g></svg>