<svg xmlns="http://www.w3.org/2000/svg" viewBox="0 0 147.48 175.98"><defs><style>.cls-1{fill:#fcde78;}.cls-2{fill:#42120d;}.cls-3{fill:#b9b3b0;}.cls-4{fill:#988a7f;}.cls-5{fill:#f9fbfb;}</style></defs><g id="Layer_2" data-name="Layer 2"><g id="Layer_1-2" data-name="Layer 1"><path class="cls-1" d="M75.52,174.39c-2.71-.7-4.35-2-4-4.83s.87-5.55,1.3-8.33c.1-.65.15-1.33,1-1.39,4.23-.27,8.41-1.49,12.72-.62A1.53,1.53,0,0,1,88,160.8a55.27,55.27,0,0,0,2.41,10.87c.15.47.53.89-.09,1.43-1.43,1.25-.44,1.58.76,1.63a29.87,29.87,0,0,0,3.54,0c3.16-.22,6.37.07,9.49-.68a2.45,2.45,0,0,0,1.56-.93c.37-.78-.51-1-1.06-1.25-1.27-.56-.66-1.58-.5-2.34.6-2.84,1.34-5.65,2-8.48.22-.92.5-1.76,1.51-2.07,5.84-1.75,11.18-4.75,16.85-6.92.6-.23,1.44-1,1.86-.05.72,1.72,2.87,2.66,2.33,5.17-.34,1.61,1.25,2.5,2.85,2.63,1.35.11,2.72.05,4.07,0,4.38,0,5.46-1.15,5.26-5.56a119.4,119.4,0,0,0-2.19-15.61c-1.07-6-1-12.06,2.54-17.52,1.77-2.75,3.45-5.55,5.1-8.36a8.15,8.15,0,0,0,.85-6.54c-1.32-5-3.09-9.87-4.6-14.81-2.57-8.35-6.93-16.24-6.74-25.33.07-3.45-1.37-6.25-3.51-8.89-1.63-2-3.59-3.88-4.09-6.64-1.61-8.74-4.08-17.32-5.23-26.15a5.94,5.94,0,0,0-2.61-4.21A100.14,100.14,0,0,0,97.5,7.75a13.48,13.48,0,0,1-5.79-3.87,7.84,7.84,0,0,0-5.42-2.72,95.84,95.84,0,0,0-20.65-1C59.92.58,54.7.86,50.34,6.46,42.76,16.19,35,25.78,27.64,35.7c-4,5.4-7.31,11-6.91,18.16.16,3,.56,6.45-.74,8.83s-5.13,2.69-7.76,4.09A4.47,4.47,0,0,0,9.57,71.4c.24,2.72.34,5.45.81,8.13A8.08,8.08,0,0,1,8.84,85.9c-2.58,3.74-5,7.58-7.52,11.35a7.3,7.3,0,0,0-1.23,5.39C1.54,112.52,3,122.4,4.21,132.31,5,139,8,143.84,14.48,146.42c4.46,1.77,8.71,4.05,13.13,5.93a3,3,0,0,1,2.15,3,52.4,52.4,0,0,1-.22,7.62c-.18,1.66.15,2.83,2.39,3.1,1.93.22,3.84.48,5.8.62,4.68.33,7.5-2.8,6.06-7.12-.48-1.43-.45-2.34,1.49-2,2.24.37,4.49.67,6.74.92,1.26.14,1.77.68,2,2,.77,3.73,1.63,7.45,2.75,11.08.51,1.67,0,2-1.42,2.25-.72.09-2-.12-1.9,1,.07.91,1.23.87,2,1,5.81.66,11.6-.18,17.4-.25A3.15,3.15,0,0,0,75.52,174.39Z"/><path class="cls-2" d="M75.52,174.39a3.15,3.15,0,0,1-2.59,1.09c-5.8.07-11.59.91-17.4.25-.8-.09-2,0-2-1-.09-1.12,1.18-.91,1.9-1,1.47-.2,1.93-.58,1.42-2.25-1.12-3.63-2-7.35-2.75-11.08-.28-1.29-.79-1.83-2-2-2.25-.25-4.5-.55-6.74-.92-1.94-.32-2,.59-1.49,2,1.44,4.32-1.38,7.45-6.06,7.12-2-.14-3.87-.4-5.8-.62-2.24-.27-2.57-1.44-2.39-3.1a52.4,52.4,0,0,0,.22-7.62,3,3,0,0,0-2.15-3c-4.42-1.88-8.67-4.16-13.13-5.93C8,143.84,5,139,4.21,132.31,3,122.4,1.54,112.52.09,102.64a7.3,7.3,0,0,1,1.23-5.39c2.52-3.77,4.94-7.61,7.52-11.35a8.08,8.08,0,0,0,1.54-6.37c-.47-2.68-.57-5.41-.81-8.13a4.47,4.47,0,0,1,2.66-4.62c2.63-1.4,6.44-1.69,7.76-4.09s.9-5.86.74-8.83c-.4-7.14,2.91-12.76,6.91-18.16C35,25.78,42.76,16.19,50.34,6.46,54.7.86,59.92.58,65.64.19a95.84,95.84,0,0,1,20.65,1,7.84,7.84,0,0,1,5.42,2.72A13.48,13.48,0,0,0,97.5,7.75,100.14,100.14,0,0,1,120.38,20.2,5.94,5.94,0,0,1,123,24.41c1.15,8.83,3.62,17.41,5.23,26.15.5,2.76,2.46,4.63,4.09,6.64,2.14,2.64,3.58,5.44,3.51,8.89-.19,9.09,4.17,17,6.74,25.33,1.51,4.94,3.28,9.8,4.6,14.81a8.15,8.15,0,0,1-.85,6.54c-1.65,2.81-3.33,5.61-5.1,8.36-3.52,5.46-3.61,11.5-2.54,17.52a119.4,119.4,0,0,1,2.19,15.61c.2,4.41-.88,5.52-5.26,5.56-1.35,0-2.72.07-4.07,0-1.6-.13-3.19-1-2.85-2.63.54-2.51-1.61-3.45-2.33-5.17-.42-1-1.26-.18-1.86.05-5.67,2.17-11,5.17-16.85,6.92-1,.31-1.29,1.15-1.51,2.07-.65,2.83-1.39,5.64-2,8.48-.16.76-.77,1.78.5,2.34.55.24,1.43.47,1.06,1.25a2.45,2.45,0,0,1-1.56.93c-3.12.75-6.33.46-9.49.68a29.87,29.87,0,0,1-3.54,0c-1.2,0-2.19-.38-.76-1.63.62-.54.24-1,.09-1.43A55.27,55.27,0,0,1,88,160.8a1.53,1.53,0,0,0-1.45-1.58c-4.31-.87-8.49.35-12.72.62-.84.06-.89.74-1,1.39-.43,2.78-.9,5.55-1.3,8.33S72.81,173.69,75.52,174.39ZM9,87.83v0a3,3,0,0,0-1.66,2.76l0,0c-1,.11-1.35.72-1.12,1.68l0,0a8,8,0,0,0-3.29,5v-.05c-.85.49-1.44,1.12-1.16,2.2H2c-1.52.81-.91,2.17-.76,3.32,1.36,10,2.69,20.07,4.2,30.08.54,3.56,1.11,7.41,4.29,9.68A46.85,46.85,0,0,0,23.23,149v0c1.25.83,2.36,2.21,4.14,1.1,2.05-.32,1.94-3.11,3.87-3.61.74,1.71-.52,3.32.19,4.89-.95,1-.64,2.19-.63,3.31,0,2.59.43,5.18-.18,7.76-.5,2.14.32,2.88,2.41,2.2a9.93,9.93,0,0,0,7.71.42c1.62-1.83,3.42-3.56,1.55-6.32-.3-.44.08-1.41.26-2.1.69-2.7,1.43-5.39,2.15-8.09,2.45.81,1.78,3.26,2.49,4.94s1.64,3.21,3.66,3.56c8.31,1.41,16.62,2.5,25.09,1.31a39.69,39.69,0,0,1,12.41-.26c2.8.47,5.71,1.09,8.61.4a18.9,18.9,0,0,0,10-.51,245.79,245.79,0,0,0,25.67-11.25,6.47,6.47,0,0,0,3.57-5.69c.35-3.89.76-7.77,1.06-11.67a16.46,16.46,0,0,1,2.68-8.42c2-2.9,3.71-6,5.51-9.07a6.2,6.2,0,0,0,.63-5c-1.31-5.2-3-10.27-4.75-15.34-3.07-9.08-7.14-17.9-7-27.8,0-1.71-1-3-1.92-4.39-1.87-2.65-4.68-4.78-5.31-8.13C125.43,42.49,123,33.91,122,25.05a5.31,5.31,0,0,0-2.43-4A95.26,95.26,0,0,0,97.08,8.9a12.57,12.57,0,0,1-5.83-3.81,7.68,7.68,0,0,0-5.39-2.78,112.58,112.58,0,0,0-23.64-.77c-4.83.33-8.88,1.51-11.24,6.1h.08c-.39,0-.54.22-.57.58v0a16.35,16.35,0,0,0-1.36,1.27c-7,8.42-13.46,17.3-20.08,26-4.56,6-8,12.44-7.19,20.19.68,6.37-1.85,10-7.92,11.5-2.9.73-3.52,2.81-3.32,5.65.33,4.63,1.92,9.37-.53,13.91l0-.06C9.2,86.52,9.14,87.19,9,87.83Zm129.4,70.39c1.24-.34,1.38-1.47,1.38-2.38a44.1,44.1,0,0,0-2-14c-.45,3.51-2.62,5.88-5,8.15l-.58.55a.64.64,0,0,0-.29.44c-1.45.51-3.22,1.39-2.34,3,1.06,2,2-.71,3.08-.76.07,0,.14-.11.21-.17l1.05.13c-.15,1-1.14,1-1.74,1.51-.81.63-1.33,1.95-.45,2.16C134,157.37,135.78,160.16,138.44,158.22ZM58.68,173.13c1.78,2.14,4,.55,6.06.8,1.71-.1,3.43-.15,5.13-.32.52-.05,1.53,0,1.17-1-1.15-3.19.23-6.25.39-9.37.31-.56.45-1.26-.11-1.6s-1.13.07-1.43.68l-.8,0a1.29,1.29,0,0,0-1.66.26l-2.72.29L56.2,161.7c-.14-.09-.38-.3-.41-.27s-.43.39-.39.54C56.37,165.72,56.72,169.67,58.68,173.13Zm37.12-.77c1.62,0,3.24-.05,4.85-.11,1.44,0,2.13-.59,2.31-2.24a67.6,67.6,0,0,1,1.6-7.39c.36-.77.88-2.18-.46-1.78a31.85,31.85,0,0,1-15.17.47c.15.77.23,1.26.34,1.75.38,1.76.73,3.54,1.18,5.29C91.45,172.34,91.64,172.47,95.8,172.36Z"/><path class="cls-3" d="M51,7.64c2.36-4.59,6.41-5.77,11.24-6.1a112.58,112.58,0,0,1,23.64.77,7.68,7.68,0,0,1,5.39,2.78A12.57,12.57,0,0,0,97.08,8.9a95.26,95.26,0,0,1,22.44,12.17,5.31,5.31,0,0,1,2.43,4c1,8.86,3.48,17.44,5.12,26.19.63,3.35,3.44,5.48,5.31,8.13,1,1.36,2,2.68,1.92,4.39-.15,9.9,3.92,18.72,7,27.8,1.72,5.07,3.44,10.14,4.75,15.34a6.2,6.2,0,0,1-.63,5c-1.8,3-3.5,6.17-5.51,9.07a16.46,16.46,0,0,0-2.68,8.42c-.3,3.9-.71,7.78-1.06,11.67a6.47,6.47,0,0,1-3.57,5.69A245.79,245.79,0,0,1,106.92,158a19,19,0,0,1-10,.52,1.11,1.11,0,0,0-1-.77c-3.74-.24-7.26-1.53-10.88-2.34-1.5-.34-3.62-.56-4.12-1.82-1.68-4.26-4.58-6.12-9.07-6.33-1.73-.08-1.85-1.88-1.7-3.44.32-3.19.63-6.07,4.77-6.93,2.91-.6,5.2-2.94,7.42-4.87a11.35,11.35,0,0,0,4-9.38,23.82,23.82,0,0,0,.11-10.69l0,0c.45-.47,1.4.14,1.61-.66s-.59-.78-1-1.09a66.85,66.85,0,0,0-12.52-8.79c-1.17-2.4-1.61-4.35,1.58-5.87,1.82-.86,1.26-2.71-.78-3.4a30.15,30.15,0,0,1-5.92-2.71c-1.08-.66-3.28-6.05-3-7.21.2-.86.92-1.1,1.55-1.4q2.68-1.29,5.42-2.5A4.58,4.58,0,0,0,76,73.37c-.21-2-2.31-1.15-3.63-1.29-2.9-.29-5.91.43-8.88-.79a168.83,168.83,0,0,0,10.57-17c1.73-3.36,1.49-4-2.13-5.22-8.4-2.77-16.16-6.87-23.77-11.31-1.79-1.05-2.07-2.35-1.79-4.31A179.65,179.65,0,0,1,51.78,9.64C52.05,8.73,52.46,7.83,51,7.64ZM124.52,127.3c2.31-2.79,4.24-2.94,6.66-.21a2,2,0,0,0,2.59.51,1.44,1.44,0,0,0,1-2.13,3.63,3.63,0,0,1,.07-2.39c.74-2.55-1.24-4.17-2.26-6.08-.73-1.39-1.95-.2-2.94-.29-.44,0-.87-.28-1.31-.31-2.23-.12-2.29-2.4-3.54-3.49l-.3-2.76c1.35-.72.18-1.11-.21-1.6l-.33-1.59c.95-.57.54-.89-.22-1.15l-.22-1c1-1.5.45-2.53-1-3.28l-1.06-2.2c0-1.29-.15-2.38-1.9-1.91-1.76-.7-3.33-.16-4.9.66a36.26,36.26,0,0,0-10.94,9.1,14.57,14.57,0,0,1-3.34,3c-.64.39-.66.77,0,1.15l-.09.9a34.46,34.46,0,0,0,.88,11c1.59,6.88,7.31,10.82,14.17,9.7a3.23,3.23,0,0,1,2.94.61,2.66,2.66,0,0,0,3.5.16c1-.85,2-1.9,1.16-3.47ZM98,124.87c.41-2.39-.72-4.18-2.58-4.25s-3.12,1.15-3.62,3a1.25,1.25,0,0,0,.25,1,.75.75,0,0,0,1.18-.1C94.92,122.08,96.5,122.6,98,124.87Z"/><path class="cls-4" d="M86.36,122.6a11.35,11.35,0,0,1-4,9.38c-2.22,1.93-4.51,4.27-7.42,4.87-4.14.86-4.45,3.74-4.77,6.93-.15,1.56,0,3.36,1.7,3.44,4.49.21,7.39,2.07,9.07,6.33.5,1.26,2.62,1.48,4.12,1.82,3.62.81,7.14,2.1,10.88,2.34a1.11,1.11,0,0,1,1,.77c-2.9.68-5.81.06-8.61-.41a39.69,39.69,0,0,0-12.41.26c-8.47,1.19-16.78.1-25.09-1.31-2-.35-2.9-1.76-3.66-3.56s0-4.13-2.49-4.94c-.38-.29-.65-.15-.88.21-3.21,5-5.12,10.29-3.08,16.3a9.93,9.93,0,0,1-7.71-.42c-1.68-4.28-.82-8.88-1.6-13.27-.71-1.57.55-3.18-.19-4.89-1.93.5-1.82,3.29-3.87,3.61-1.43-.21-2.63-1.25-4.14-1.1v0c0-1.06-.95-1.19-1.65-1.53-2.9-1.43-5.82-2.81-8.71-4.26-.93-.46-2-.83-2.17-2.15,1.66-2-.78-2.62-1.45-3.71s-.8.41-1.23.67c-.64-.39-.6-1.06-.69-1.68-1.07-7.23-2.17-14.45-3.22-21.69C3.37,109.52,2.68,104.39,2,99.26H1.88c1.5-.15,1.75-1,1.16-2.2v.05a10.38,10.38,0,0,0,3.29-5l0,0a2,2,0,0,0,1.12-1.68l0,0a2.84,2.84,0,0,0,1.66-2.76v0a1.06,1.06,0,0,0,1.09-1.15l0,.06a4.59,4.59,0,0,0,2.22-4.37c0-3.71-.06-7.43-.34-11.13-.11-1.45.15-2.18,1.53-2.65,2.48-.86,4.9-1.88,7.37-2.77,2.67-1,3.36-2.76,3-5.51-1.1-8.67.56-16.47,6.16-23.65C36.51,28.4,42.74,20,49,11.56c.76-1,1.66-2,1.46-3.37v0l.57-.58H51c1.48.19,1.07,1.09.8,2a179.65,179.65,0,0,0-5.42,23.82c-.28,2,0,3.26,1.79,4.31,7.61,4.44,15.37,8.54,23.77,11.31,3.62,1.19,3.86,1.86,2.13,5.22a168.83,168.83,0,0,1-10.57,17c3,1.22,6,.5,8.88.79,1.32.14,3.42-.73,3.63,1.29a4.58,4.58,0,0,1-2.62,4.95q-2.73,1.22-5.42,2.5c-.63.3-1.35.54-1.55,1.4-.25,1.16,1.95,6.55,3,7.21a30.15,30.15,0,0,0,5.92,2.71c2,.69,2.6,2.54.78,3.4-3.19,1.52-2.75,3.47-1.58,5.87a5.38,5.38,0,0,1-2.83-.78c-4.16-1.67-7.48-1-10,2.63-4.19,6-5.79,19.11,1.16,26.7,2.57,2.81,6.15,4.82,9.22,4.93a13,13,0,0,0,11.65-6.65C84.77,126.45,85.49,124.48,86.36,122.6Zm-23,11.34c.33.28.81.8,1.07.44s-.3-.66-.69-.81l-4.23-3.84C60.53,132,61.49,133.37,63.33,133.94ZM48.84,154.78c2.35,1.44,4.36.94,6.29.91A10.06,10.06,0,0,0,48.84,154.78Z"/><path class="cls-3" d="M50.5,8.19c.2,1.42-.7,2.35-1.46,3.37-6.3,8.39-12.53,16.84-19,25.1-5.6,7.18-7.26,15-6.16,23.65.34,2.75-.35,4.55-3,5.51-2.47.89-4.89,1.91-7.37,2.77-1.38.47-1.64,1.2-1.53,2.65.28,3.7.35,7.42.34,11.13a4.59,4.59,0,0,1-2.22,4.37c2.45-4.54.86-9.28.53-13.91-.2-2.84.42-4.92,3.32-5.65,6.07-1.52,8.6-5.13,7.92-11.5-.81-7.75,2.63-14.19,7.19-20.19,6.62-8.73,13.06-17.61,20.08-26A16.35,16.35,0,0,1,50.5,8.19Z"/><path class="cls-3" d="M71.43,163.24c-.16,3.12-1.54,6.18-.39,9.37.36,1-.65.95-1.17,1-1.7.17-3.42.22-5.13.32a61.52,61.52,0,0,1-1.1-8.55c0-1,0-2,1.07-2.56l2.72-.29c.68.7,1.24.68,1.66-.26l.8,0Z"/><path class="cls-4" d="M95.8,172.36c-4.16.11-4.35,0-5.35-4-.45-1.75-.8-3.53-1.18-5.29-.11-.49-.19-1-.34-1.75a31.85,31.85,0,0,0,15.17-.47c1.34-.4.82,1,.46,1.78-.14-.21-.29-.61-.42-.61-6.3.28-8.13,2.16-8.25,8.47C95.87,171.11,95.83,171.73,95.8,172.36Z"/><path class="cls-4" d="M64.71,162.82c-1,.57-1.08,1.52-1.07,2.56a61.52,61.52,0,0,0,1.1,8.55c-2-.25-4.28,1.34-6.06-.8,0-4-2-7.53-2.48-11.43Z"/><path class="cls-3" d="M10.7,141.05c.12,1.32,1.24,1.69,2.17,2.15,2.89,1.45,5.81,2.83,8.71,4.26.7.34,1.62.47,1.65,1.53A46.85,46.85,0,0,1,9.7,142.34c-3.18-2.27-3.75-6.12-4.29-9.68-1.51-10-2.84-20-4.2-30.08-.15-1.15-.76-2.51.76-3.32.71,5.13,1.4,10.26,2.14,15.38,1,7.24,2.15,14.46,3.22,21.69.09.62,0,1.29.69,1.68a.41.41,0,0,1,.09.37c.21,1.2.58,2.25,2,2.38Z"/><path class="cls-3" d="M95.8,172.36c0-.63.07-1.25.09-1.88.12-6.31,2-8.19,8.25-8.47.13,0,.28.4.42.61A67.6,67.6,0,0,0,103,170c-.18,1.65-.87,2.2-2.31,2.24C99,172.31,97.42,172.33,95.8,172.36Z"/><path class="cls-3" d="M132,151a.64.64,0,0,1,.29-.44l.58-.55c2.34-2.27,4.51-4.64,5-8.15a44.1,44.1,0,0,1,2,14c0,.91-.14,2-1.38,2.37-1-1.77-3.16-2.71-3.33-5.05,0-.38-.73-.34-1.11,0l-1.05-.13C133,152.2,133.05,151.34,132,151Z"/><path class="cls-3" d="M40.74,165c-2-6-.13-11.28,3.08-16.3.23-.36.5-.5.88-.21-.72,2.7-1.46,5.39-2.15,8.09-.18.69-.56,1.66-.26,2.1C44.16,161.47,42.36,163.2,40.74,165Z"/><path class="cls-4" d="M134,153.18c.38-.36,1.08-.4,1.11,0,.17,2.34,2.37,3.28,3.33,5.05-2.66,1.95-4.45-.84-6.63-1.36-.88-.21-.36-1.53.45-2.16C132.86,154.21,133.85,154.18,134,153.18Z"/><path class="cls-3" d="M31.43,151.34c.78,4.39-.08,9,1.6,13.27-2.09.68-2.91-.06-2.41-2.2.61-2.58.19-5.17.18-7.76C30.79,153.53,30.48,152.3,31.43,151.34Z"/><path class="cls-3" d="M56.2,161.7c.44,3.9,2.5,7.44,2.48,11.43-2-3.46-2.31-7.41-3.28-11.16,0-.15.22-.39.39-.54S56.06,161.61,56.2,161.7Z"/><path class="cls-4" d="M132,151c1.05.35,1,1.21.95,2.06-.07.06-.14.16-.21.17-1.13.05-2,2.71-3.08.76C128.78,152.38,130.55,151.5,132,151Z"/><path class="cls-3" d="M6.33,92.16a10.38,10.38,0,0,1-3.29,5A8,8,0,0,1,6.33,92.16Z"/><path class="cls-3" d="M23.23,149c1.51-.15,2.71.89,4.14,1.1C25.59,151.17,24.48,149.79,23.23,149Z"/><path class="cls-3" d="M9.05,87.81a2.84,2.84,0,0,1-1.66,2.76A3,3,0,0,1,9.05,87.81Z"/><path class="cls-3" d="M3,97.07c.59,1.24.34,2.05-1.16,2.2C1.6,98.19,2.19,97.56,3,97.07Z"/><path class="cls-4" d="M71.43,163.24l-1.54-.92c.3-.61.88-1,1.43-.68S71.74,162.68,71.43,163.24Z"/><path class="cls-4" d="M69.09,162.27c-.42.94-1,1-1.66.26A1.29,1.29,0,0,1,69.09,162.27Z"/><path class="cls-3" d="M7.42,90.53A2,2,0,0,1,6.3,92.21C6.07,91.25,6.38,90.64,7.42,90.53Z"/><path class="cls-3" d="M10.13,86.68A1.06,1.06,0,0,1,9,87.83C9.14,87.19,9.2,86.52,10.13,86.68Z"/><path class="cls-3" d="M51.06,7.64l-.57.58C50.52,7.86,50.67,7.63,51.06,7.64Z"/><path class="cls-4" d="M132.87,150l-.58.55Z"/><path class="cls-2" d="M86.36,122.6c-.87,1.88-1.59,3.85-2.63,5.64a13,13,0,0,1-11.65,6.65c-3.07-.11-6.65-2.12-9.22-4.93-7-7.59-5.35-20.73-1.16-26.7,2.54-3.61,5.86-4.3,10-2.63a5.38,5.38,0,0,0,2.83.78,66.85,66.85,0,0,1,12.52,8.79c.38.31,1.15.42,1,1.09s-1.16.19-1.61.66l0-.17v.13A23.82,23.82,0,0,1,86.36,122.6ZM71.45,103.1c-4.87-2.27-6.84-1.78-9.75,2.19-4.55,6.22-3.47,19,2.06,24.35a12.33,12.33,0,0,0,14,2.58c.83-.36,2.06-.72,1.92-1.65-.17-1.13-1.48-.75-2.3-.69-3.8.28-6.57-1.6-9-4.16C63.57,120.78,62.63,109.25,71.45,103.1Z"/><path class="cls-2" d="M121.43,99.3c.35.73.71,1.46,1.06,2.2a7.79,7.79,0,0,0,1,3.28l.22,1a1.1,1.1,0,0,0,.22,1.15l.33,1.59a1.92,1.92,0,0,0,.21,1.6l.3,2.76c-.12,4.61-.31,9.23-3,13.25-.54.81-.83,2.08-2.27,1.86,1.14-1.83,2.5-3.52,3.12-5.66C124.75,115,123.45,108,121,101c-.77-2.17-2.57-2.09-4.28-1.55a25.53,25.53,0,0,0-3.8,2c2.44,1.16,4.25,2.26,5.35,4.28,5,9.2-.84,20.75-11.18,21.89-1.72.19-.07.76-.22,1.1-1.57.39-2-1-2.52-1.85a18.12,18.12,0,0,1-2.74-12.15c.17-1.26.41-2.34-1.33-2.49l.09-.9c.44-.39.5-.77,0-1.15a14.57,14.57,0,0,0,3.34-3,36.26,36.26,0,0,1,10.94-9.1c1.57-.82,3.14-1.36,4.9-.66Z"/><path class="cls-4" d="M119.52,128c1.44.22,1.73-1.05,2.27-1.86,2.67-4,2.86-8.64,3-13.25,1.25,1.09,1.31,3.37,3.54,3.49.44,0,.87.27,1.31.31,1,.09,2.21-1.1,2.94.29,1,1.91,3,3.53,2.26,6.08a3.63,3.63,0,0,0-.07,2.39,1.44,1.44,0,0,1-1,2.13,2,2,0,0,1-2.59-.51c-2.42-2.73-4.35-2.58-6.66.21-1.9,1.3-2.8,3.56-4.86,4.73,1.55,0,2.23-1.15,3.26-1.81.86,1.57-.12,2.62-1.16,3.47a2.66,2.66,0,0,1-3.5-.16,3.23,3.23,0,0,0-2.94-.61c-6.86,1.12-12.58-2.82-14.17-9.7a34.46,34.46,0,0,1-.88-11c1.74.15,1.5,1.23,1.33,2.49a18.12,18.12,0,0,0,2.74,12.15c.53.87,1,2.24,2.52,1.85l-.09,0c1.92,4.07,9.28,4,12.4-.08l0,0c.48.1.67-.09.59-.57Z"/><path class="cls-2" d="M98,124.87c-1.52-2.27-3.1-2.79-4.77-.41a.75.75,0,0,1-1.18.1,1.25,1.25,0,0,1-.25-1c.5-1.82,1.63-3,3.62-3S98.43,122.48,98,124.87Z"/><path class="cls-2" d="M122.92,130.22c-1,.66-1.71,1.83-3.26,1.81,2.06-1.17,3-3.43,4.86-4.73Z"/><path class="cls-4" d="M123.49,104.78a7.79,7.79,0,0,1-1-3.28C123.94,102.25,124.48,103.28,123.49,104.78Z"/><path class="cls-4" d="M121.43,99.3l-1.9-1.91C121.28,96.92,121.45,98,121.43,99.3Z"/><path class="cls-4" d="M123.93,107a1.1,1.1,0,0,1-.22-1.15C124.47,106.07,124.88,106.39,123.93,107Z"/><path class="cls-4" d="M100.35,110.18c.51.38.45.76,0,1.15C99.69,111,99.71,110.57,100.35,110.18Z"/><path class="cls-4" d="M124.47,110.15a1.92,1.92,0,0,1-.21-1.6C124.65,109,125.82,109.43,124.47,110.15Z"/><path class="cls-2" d="M48.84,154.78a10.06,10.06,0,0,1,6.29.91C53.2,155.72,51.19,156.22,48.84,154.78Z"/><path class="cls-2" d="M8.11,138.38A.41.41,0,0,0,8,138c.43-.26.65-1.62,1.23-.67s3.11,1.68,1.45,3.71l-.55-.29A2.83,2.83,0,0,0,8.11,138.38Z"/><path class="cls-2" d="M63.33,134c-1.84-.58-2.8-2-3.85-4.22l4.23,3.84A4.54,4.54,0,0,0,63.33,134Z"/><path class="cls-2" d="M63.71,133.57c.39.15,1,.35.69.81s-.74-.16-1.07-.43A4.54,4.54,0,0,1,63.71,133.57Z"/><path class="cls-4" d="M8.11,138.38a2.83,2.83,0,0,1,2,2.38C8.69,140.63,8.32,139.58,8.11,138.38Z"/><path class="cls-5" d="M71.45,103.1c-8.82,6.15-7.88,17.68-3.11,22.62,2.48,2.56,5.25,4.44,9,4.16.82-.06,2.13-.44,2.3.69.14.93-1.09,1.29-1.92,1.65a12.33,12.33,0,0,1-14-2.58c-5.53-5.35-6.61-18.13-2.06-24.35C64.61,101.32,66.58,100.83,71.45,103.1Z"/><polygon class="cls-3" points="86.47 111.91 86.47 111.78 86.43 111.95 86.47 111.91"/><path class="cls-5" d="M106.86,128.72c.15-.34-1.5-.91.22-1.1,10.34-1.14,16.2-12.69,11.18-21.89-1.1-2-2.91-3.12-5.35-4.28a25.53,25.53,0,0,1,3.8-2c1.71-.54,3.51-.62,4.28,1.55,2.46,7,3.76,14,1.65,21.34-.62,2.14-2,3.83-3.12,5.66l.19.07c-.53-.16-.81-.05-.59.57l0,0c-4.12,2.32-8.25,3.35-12.4.08Z"/><path class="cls-2" d="M106.77,128.69c4.15,3.27,8.28,2.24,12.4-.08C116.05,132.71,108.69,132.76,106.77,128.69Z"/><path class="cls-2" d="M119.12,128.66c-.22-.62.06-.73.59-.57C119.79,128.57,119.6,128.76,119.12,128.66Z"/></g></g></svg>