<svg xmlns="http://www.w3.org/2000/svg" viewBox="0 0 104.85 170.98"><defs><style>.cls-1{fill:#fcde78;}.cls-2{fill:#42120d;}.cls-3{fill:#b12d2c;}.cls-4{fill:#b9b3b0;}.cls-5{fill:#988a7f;}.cls-6{fill:#f9fbfb;}</style></defs><g id="Layer_2" data-name="Layer 2"><g id="Layer_1-2" data-name="Layer 1"><path class="cls-1" d="M62.9,113.61c2.15-1.15,2.65-3.25,3.08-5.38a8.42,8.42,0,0,1,1.71-5c2.08-2.86,4.13-5.75,6-8.73,5.93-9.22,12.9-17.81,17.28-28,.37-.86.44-1.93,1.41-2.47-.15.48-.14-.05-.21,0,.29-1,.56-1.9.88-2.83,6.61-19.63,4.35-37.92-8.23-54.64-.72-1-.91-2.75-2.53-2.47S80.8,6.1,80.4,7.3c-9.82,28.86-19,57.91-26.48,87.49-.2.79.19,2.59-1.53,2.29a2.89,2.89,0,0,1-2.79-2.65c-2-14.29-4.45-28.53-5.85-42.91C42.16,35.25,40.39,19,37.16,3,36.52-.22,35.84-.67,33.31.81,14.27,11.94,4.74,32,8.69,52.06c2.39,12.15,8.9,22.11,17.14,31.06,3.82,4.14,7.69,8.23,11.13,12.7a2.69,2.69,0,0,1,.25,3.68,12.92,12.92,0,0,0,2.22,16c1.73,1.62,1.6,2.51.64,4.15-8-7.09-21.69-7.71-30-.34C1.24,127.2-1.6,137.06.83,148.4c2.3,10.77,9.09,17.3,20,19.37-.57.66-1.92,0-1.88,1.25,0,.45.61.6,1.09.61a138.91,138.91,0,0,0,14.23-.45c-1.47-1.62-3.31-1.09-4.91-2.07,9.54-3.11,13.43-10.56,15.78-19.23.33-1.22.59-2.47.82-3.72a2.13,2.13,0,0,1,1.75-2c2.64-.79,3.55-6.1,1.26-7.67-1.23-.84-1.16-1.59-.94-2.7,1-4.71,1.89-9.42,2.83-14.14.15-.7.15-1.5,1.19-1.5s1,1,1.12,1.57c1.25,5.67,2.43,11.36,3.67,17a2.1,2.1,0,0,1-1.13,2.61c-2,1.31-1.26,6.87,1,7.42,1.74.43,2,1.42,2.27,2.79,1,5.49,2.6,10.77,6,15.31a39.3,39.3,0,0,0,5.83,5.53,5.54,5.54,0,0,0-3.19,1.91c8.84.62,17.48,1.08,26.41-.08-.82-1.64-2.08-.87-3.09-1.63a26.43,26.43,0,0,0,7.51-5.84c9.1-10.92,8.34-28.49-1.67-38.65C91,118.28,84.14,115.89,76,117.37c-4.12.75-8,2.17-11.17,5.37-1-3-1.83-5.66-2.68-8.31C62.39,114.16,62.64,113.88,62.9,113.61Z"/><path class="cls-2" d="M62.14,114.43c.85,2.65,1.71,5.31,2.68,8.31,3.21-3.2,7.05-4.62,11.17-5.37,8.15-1.48,15,.91,20.83,6.78,10,10.16,10.77,27.73,1.67,38.65A26.43,26.43,0,0,1,91,168.64c1,.76,2.27,0,3.09,1.63-8.93,1.16-17.57.7-26.41.08a5.54,5.54,0,0,1,3.19-1.91A39.3,39.3,0,0,1,65,162.91c-3.44-4.54-5-9.82-6-15.31-.25-1.37-.53-2.36-2.27-2.79-2.22-.55-2.93-6.11-1-7.42a2.1,2.1,0,0,0,1.13-2.61c-1.24-5.67-2.42-11.36-3.67-17-.14-.61,0-1.57-1.12-1.57s-1,.8-1.19,1.5c-.94,4.72-1.87,9.43-2.83,14.14-.22,1.11-.29,1.86.94,2.7,2.29,1.57,1.38,6.88-1.26,7.67a2.13,2.13,0,0,0-1.75,2c-.23,1.25-.49,2.5-.82,3.72-2.35,8.67-6.24,16.12-15.78,19.23,1.6,1,3.44.45,4.91,2.07a138.91,138.91,0,0,1-14.23.45c-.48,0-1.08-.16-1.09-.61,0-1.25,1.31-.59,1.88-1.25-11-2.07-17.74-8.6-20-19.37-2.43-11.34.41-21.2,9.27-29.08,8.28-7.37,21.92-6.75,30,.34,1-1.64,1.09-2.53-.64-4.15a12.92,12.92,0,0,1-2.22-16A2.69,2.69,0,0,0,37,95.82c-3.44-4.47-7.31-8.56-11.13-12.7-8.24-9-14.75-18.91-17.14-31.06C4.74,32,14.27,11.94,33.31.81c2.53-1.48,3.21-1,3.85,2.14,3.23,16.05,5,32.3,6.59,48.57,1.4,14.38,3.82,28.62,5.85,42.91a2.89,2.89,0,0,0,2.79,2.65c1.72.3,1.33-1.5,1.53-2.29C61.37,65.21,70.58,36.16,80.4,7.3c.4-1.2.32-3,1.94-3.28s1.81,1.52,2.53,2.47c12.58,16.72,14.84,35,8.23,54.64-.32.93-.59,1.88-.88,2.83.07,0,.06.51.21,0-1,.54-1,1.61-1.41,2.47-4.38,10.19-11.35,18.78-17.28,28-1.92,3-4,5.87-6,8.73a8.41,8.41,0,0,0-1.71,5c-.18-.34-.36-.68-.55-1-.38-7.62-2.89-9.88-9.07-8.17.71-1.77,2.34-1.78,3.77-1.69,3.47.23,5,2.77,6.14,5.89.49-.57.82-.88,1.07-1.24,6.21-9.27,12.85-18.27,18.5-27.9C95.08,58.37,98.4,41.73,93,23.88,90.85,17,87.06,11,82.45,5.05c-.36.87-.59,1.33-.76,1.82C73.69,30.4,65.84,54,59.49,78c-1.74,6.57-3.65,13.1-5.51,19.63-.18.64-.66,2-1.08,1.55-1.41-1.45-4.66-1-4.38-4.19l-.13-.8c-1.58-11-3.35-22.07-4.72-33.15-2.26-18.19-3.51-36.5-7-54.53C35.42.21,35.47.11,30.25,3.94,15,15.17,7.11,30,9.41,49.23c1.44,12.07,7.7,22,15.37,31,4.52,5.32,9.69,10.07,13.66,15.87a1.27,1.27,0,0,0,1.76.64c1.9-.67,3.76-.1,5.59.52,3.53,3.5,3.32,8.06,3.2,12.44-.12,4-1.81,7-6.41,7.29-.14,0-.26.41-.39.63a10,10,0,0,0-.58,1.19c-.83,2.78-1.21,2.94-3.27,1a13.55,13.55,0,0,0-4.62-2.79c-9.72-3.57-18-2-25.47,5.74-10.91,11.32-8.72,33.32,4.34,40.78,8.52,4.86,20.55,3.75,26.42-4.94a40.14,40.14,0,0,0,5.83-14.81c.23-1.13.22-2.74,1.69-2.72,2,0,2.11-1.3,2.39-2.6s.48-2.62-1.32-3.33c-1.17-.46-1.1-1.65-.85-2.83.91-4.24,1.74-8.5,2.6-12.76a28,28,0,0,0,.82-2.8c.2-1,.67-1.62,1.76-1.63a1.83,1.83,0,0,1,2.12,1.59,14.63,14.63,0,0,0,.58,1.77q1.8,8.34,3.58,16.7a2.47,2.47,0,0,1-1.29,2.94c-1.9,1.18-1.46,5.15.68,5.66a2.62,2.62,0,0,1,2.21,2.6,44.27,44.27,0,0,0,3.64,11.37c5.93,13,20.37,14.87,30.39,7.64,11-7.92,13.38-26.63,3.8-38.55-8.82-11-23.92-10.83-31.75-3.24-1.22,1.18-1.83.63-2.25-.75-.65-2.08-1.38-4.13-2.07-6.18a2,2,0,0,0-.46-1.73l-.33-.79,1.1-.5Zm-16.82.47c-4.17-.73-6.56-3.88-6.49-8.54.07-4.38,1.83-6.07,6.94-6.7-2.32-3.22-6.34-2.74-8,1.06-1.42,3.28-1.18,6.64-.45,10.12C38.11,114.6,41.92,116.72,45.32,114.9Z"/><path class="cls-3" d="M65.43,107.2c.19.34.37.68.55,1-.43,2.14-.93,4.24-3.08,5.39l-.42-.42C64.52,111.71,64.77,109.35,65.43,107.2Z"/><path class="cls-3" d="M62.14,114.43l-.26-.75.6-.49.42.42C62.64,113.88,62.39,114.16,62.14,114.43Z"/><path class="cls-4" d="M48.52,95c-.28,3.14,3,2.74,4.38,4.19.42.43.9-.91,1.08-1.55,1.86-6.53,3.77-13.06,5.51-19.63,6.35-24,14.2-47.62,22.2-71.15.17-.49.4-1,.76-1.82C87.06,11,90.85,17,93,23.88c5.44,17.85,2.12,34.49-7.12,50.21-5.65,9.63-12.29,18.63-18.5,27.9-.25.36-.58.67-1.07,1.24-1.12-3.12-2.67-5.66-6.14-5.89-1.43-.09-3.06-.08-3.77,1.69v-.17c-2.35.78-2.57,3-3.32,4.87a.66.66,0,0,0-.13,1.09v4.87c-2,.16-2.95-.57-2.68-2.75a11.94,11.94,0,0,0-.93-6.12c-.68-1.63-1.12-3.59-3.51-3.55-1.83-.62-3.69-1.19-5.59-.52a1.27,1.27,0,0,1-1.76-.64c-4-5.8-9.14-10.55-13.66-15.87-7.67-9-13.93-18.94-15.37-31C7.11,30,15,15.17,30.25,3.94,35.47.11,35.42.21,36.65,6.53c3.51,18,4.76,36.34,7,54.53,1.37,11.08,3.14,22.1,4.72,33.15C48.44,94.48,48.48,94.74,48.52,95Zm14.9-11.94a2.48,2.48,0,0,0,1.4,2.53c.59.26,1.34.94,1.91.14s-.37-1-.79-1.39A2.11,2.11,0,0,1,65,82.81c0-.6.45-1.74-.69-1.61C63.45,81.31,63.48,82.41,63.42,83.07ZM34.47,84c1.17-.48,2.38-1.07,2.64-2.63.09-.56-.2-1.38-.76-1a16.15,16.15,0,0,0-3.2,2.82C33,83.31,33.72,84,34.47,84Z"/><path class="cls-3" d="M61.57,116.7c.69,2,1.42,4.1,2.07,6.18.42,1.38,1,1.93,2.25.75,7.83-7.59,22.93-7.73,31.75,3.24,9.58,11.92,7.18,30.63-3.8,38.55-10,7.23-24.46,5.33-30.39-7.64a44.27,44.27,0,0,1-3.64-11.37,2.62,2.62,0,0,0-2.21-2.6c-2.14-.51-2.58-4.48-.68-5.66a2.47,2.47,0,0,0,1.29-2.94q-1.77-8.36-3.58-16.7C57,118,59.12,116.78,61.57,116.7Zm17.55,8.8a15.25,15.25,0,0,0-2,0C71.55,126,65,129.89,64.27,137c-.59,5.47.67,10.66,2.52,15.67,2.26,6.12,6,11.2,13,12.08s13-2.61,16.37-9.3c2.16-4.32,2.09-8.89,1.51-13.57C96.7,133.77,89.46,124.64,79.12,125.5Z"/><path class="cls-3" d="M49.35,119.58c-.86,4.26-1.69,8.52-2.6,12.76-.25,1.18-.32,2.37.85,2.83,1.8.71,1.62,2,1.32,3.33s-.34,2.64-2.39,2.6c-1.47,0-1.46,1.59-1.69,2.72A40.14,40.14,0,0,1,39,158.63c-5.87,8.69-17.9,9.8-26.42,4.94-13.06-7.46-15.25-29.46-4.34-40.78,7.42-7.7,15.75-9.31,25.47-5.74a13.55,13.55,0,0,1,4.62,2.79c2.06,1.92,2.44,1.76,3.27-1a10,10,0,0,1,.58-1.19ZM6.66,143.24A19,19,0,0,0,10.79,156c4.67,5.89,14.78,9.18,22.24,1.68,5-5,6.39-11.61,7.52-18.28.71-4.2.36-8.2-2.47-11.57-5.83-7-17.89-7.58-24.48-1.32A22.12,22.12,0,0,0,6.66,143.24Z"/><path class="cls-5" d="M49.35,119.58l-7.16-2c.13-.22.25-.62.39-.63,4.6-.27,6.29-3.33,6.41-7.29.12-4.38.33-8.94-3.2-12.44,2.39,0,2.83,1.92,3.51,3.55a11.94,11.94,0,0,1,.93,6.12c-.27,2.18.68,2.91,2.68,2.75a12.23,12.23,0,0,0,1.92,4c1.78,1.9,4,1.65,6.28,1.32a2,2,0,0,1,.46,1.73c-2.45.08-4.6,1.29-6.94,1.81a14.63,14.63,0,0,1-.58-1.77,1.83,1.83,0,0,0-2.12-1.59c-1.09,0-1.56.6-1.76,1.63A28,28,0,0,1,49.35,119.58Z"/><path class="cls-6" d="M45.32,114.9c-3.4,1.82-7.21-.3-8-4.06-.73-3.48-1-6.84.45-10.12,1.65-3.8,5.67-4.28,8-1.06-5.11.63-6.87,2.32-6.94,6.7C38.76,111,41.15,114.17,45.32,114.9Z"/><path class="cls-6" d="M62.48,113.19l-.6.49-1.09.5c-.9-.1-1.84.72-2.84-.15l1.37-.82A8.33,8.33,0,0,0,61.9,104c-1-2.93-3-4.22-6.06-3.54-.11-.77.9-.89.52-1.57V99c6.18-1.71,8.69.55,9.07,8.17C64.77,109.35,64.52,111.71,62.48,113.19Z"/><path class="cls-3" d="M59.32,113.21,58,114c1,.87,1.94,0,2.84.15.1.27.21.53.32.79-2.26.33-4.5.58-6.29-1.32Z"/><path class="cls-5" d="M48.52,95c0-.27-.08-.53-.13-.8C48.44,94.48,48.48,94.74,48.52,95Z"/><path class="cls-2" d="M59.32,113.21l-4.5.44a12.41,12.41,0,0,1-1.91-4v-4.87l.13-1.09c.75-1.86,1-4.09,3.32-4.87.38.68-.63.8-.52,1.57,3.06-.68,5,.61,6.06,3.54A8.33,8.33,0,0,1,59.32,113.21Z"/><path class="cls-2" d="M63.42,83.07c.06-.66,0-1.76.91-1.87,1.14-.13.64,1,.69,1.61a2.11,2.11,0,0,0,.92,1.54c.42.35,1.35.61.79,1.39s-1.32.12-1.91-.14A2.48,2.48,0,0,1,63.42,83.07Z"/><path class="cls-2" d="M34.47,84c-.75,0-1.47-.66-1.32-.83a16.15,16.15,0,0,1,3.2-2.82c.56-.36.85.46.76,1C36.85,82.9,35.64,83.49,34.47,84Z"/><path class="cls-5" d="M53,103.73l-.13,1.09A.66.66,0,0,1,53,103.73Z"/><path class="cls-2" d="M79.12,125.5c10.34-.86,17.58,8.27,18.59,16.41.58,4.68.65,9.25-1.51,13.57-3.36,6.69-9.23,10.19-16.37,9.3s-10.78-6-13-12.08c-1.85-5-3.11-10.2-2.52-15.67.76-7.14,7.28-11,12.9-11.52A15.25,15.25,0,0,1,79.12,125.5Zm18,20.66c-.17-1.47-.28-3.29-.59-5.08-2.07-12.22-15.18-18.55-25.49-12.39a11.36,11.36,0,0,0-5.87,10.08A33.47,33.47,0,0,0,69.54,156c4.73,8.4,13.8,10.4,21,4.82C95.15,157.21,97,152.24,97.14,146.16Z"/><path class="cls-2" d="M6.66,143.24a22.12,22.12,0,0,1,6.94-16.71c6.59-6.26,18.65-5.64,24.48,1.32,2.83,3.37,3.18,7.37,2.47,11.57-1.13,6.67-2.5,13.23-7.52,18.28-7.46,7.5-17.57,4.21-22.24-1.68A19,19,0,0,1,6.66,143.24Zm17.15-19.87c-4,0-8.44,2.06-11.72,6.48-4.45,6-5.35,12.64-3.41,19.64,1.79,6.45,6.21,10.51,12.86,11.37,6.47.84,10.86-2.74,13.9-8.1,2.31-4.07,3.34-8.57,4.08-13.18C41.27,128.69,33.39,123.51,23.81,123.37Z"/><path class="cls-1" d="M97.14,146.16c-.12,6.08-2,11.05-6.61,14.65-7.19,5.58-16.26,3.58-21-4.82a33.47,33.47,0,0,1-4.35-17.22,11.36,11.36,0,0,1,5.87-10.08c10.31-6.16,23.42.17,25.49,12.39C96.86,142.87,97,144.69,97.14,146.16Z"/><path class="cls-1" d="M23.81,123.37c9.58.14,17.46,5.32,15.71,16.21-.74,4.61-1.77,9.11-4.08,13.18-3,5.36-7.43,8.94-13.9,8.1-6.65-.86-11.07-4.92-12.86-11.37-1.94-7-1-13.65,3.41-19.64C15.37,125.43,19.77,123.38,23.81,123.37Z"/></g></g></svg>